HIERARCHY
ROOT Hips
{
	OFFSET -14.64140 90.27770 -84.91600
	CHANNELS 6 Xposition Yposition Zposition Zrotation Xrotation Yrotation
	JOINT Spine
	{
		OFFSET 0.00000 13.20850 -1.60436
		CHANNELS 3 Zrotation Xrotation Yrotation
		JOINT Spine1
		{
			OFFSET 0.00000 8.61716 0.00000
			CHANNELS 3 Zrotation Xrotation Yrotation
			JOINT Spine2
			{
				OFFSET 0.00000 8.61717 0.00000
				CHANNELS 3 Zrotation Xrotation Yrotation
				JOINT Spine3
				{
					OFFSET 0.00000 8.61717 0.00000
					CHANNELS 3 Zrotation Xrotation Yrotation
					JOINT Neck
					{
						OFFSET 0.00000 11.07920 1.10792
						CHANNELS 3 Zrotation Xrotation Yrotation
						JOINT Neck1
						{
							OFFSET 0.00000 7.08032 0.00000
							CHANNELS 3 Zrotation Xrotation Yrotation
							JOINT Head
							{
								OFFSET 0.00000 7.08031 0.00000
								CHANNELS 3 Zrotation Xrotation Yrotation
								End site
								{
									OFFSET 0.00000 0.00000 0.00000
								}
							}
						}
					}
					JOINT RightShoulder
					{
						OFFSET -0.01000 7.91373 5.19711
						CHANNELS 3 Zrotation Xrotation Yrotation
						JOINT RightArm
						{
							OFFSET -18.41580 0.00000 0.00000
							CHANNELS 3 Zrotation Xrotation Yrotation
							JOINT RightForeArm
							{
								OFFSET -29.11090 0.00000 0.00000
								CHANNELS 3 Zrotation Xrotation Yrotation
								JOINT RightHand
								{
									OFFSET -24.65040 0.00000 0.00000
									CHANNELS 3 Zrotation Xrotation Yrotation
									JOINT RightHandThumb1
									{
										OFFSET -5.35114 -0.85590 3.97906
										CHANNELS 3 Zrotation Xrotation Yrotation
										JOINT RightHandThumb2
										{
											OFFSET -4.52789 0.00000 0.00000
											CHANNELS 3 Zrotation Xrotation Yrotation
											JOINT RightHandThumb3
											{
												OFFSET -2.46976 0.00000 0.00000
												CHANNELS 3 Zrotation Xrotation Yrotation
												End site
												{
													OFFSET 0.00000 0.00000 0.00000
												}
											}
										}
									}
									JOINT RightHandIndex1
									{
										OFFSET -14.26970 0.00000 2.88139
										CHANNELS 3 Zrotation Xrotation Yrotation
										JOINT RightHandIndex2
										{
											OFFSET -5.48836 0.00000 0.00000
											CHANNELS 3 Zrotation Xrotation Yrotation
											JOINT RightHandIndex3
											{
												OFFSET -3.01859 0.00000 0.00000
												CHANNELS 3 Zrotation Xrotation Yrotation
												End site
												{
													OFFSET 0.00000 0.00000 0.00000
												}
											}
										}
									}
									JOINT RightHandMiddle1
									{
										OFFSET -14.26970 0.00000 -0.09147
										CHANNELS 3 Zrotation Xrotation Yrotation
										JOINT RightHandMiddle2
										{
											OFFSET -6.17441 0.00000 0.00000
											CHANNELS 3 Zrotation Xrotation Yrotation
											JOINT RightHandMiddle3
											{
												OFFSET -3.56743 0.00000 0.00000
												CHANNELS 3 Zrotation Xrotation Yrotation
												End site
												{
													OFFSET 0.00000 0.00000 0.00000
												}
											}
										}
									}
									JOINT RightHandRing1
									{
										OFFSET -12.69180 0.00000 -3.06433
										CHANNELS 3 Zrotation Xrotation Yrotation
										JOINT RightHandRing2
										{
											OFFSET -5.62556 0.00000 0.00000
											CHANNELS 3 Zrotation Xrotation Yrotation
											JOINT RightHandRing3
											{
												OFFSET -3.56744 0.00000 0.00000
												CHANNELS 3 Zrotation Xrotation Yrotation
												End site
												{
													OFFSET 0.00000 0.00000 0.00000
												}
											}
										}
									}
									JOINT RightHandPinky1
									{
										OFFSET -11.11390 0.00000 -6.03719
										CHANNELS 3 Zrotation Xrotation Yrotation
										JOINT RightHandPinky2
										{
											OFFSET -4.52789 0.00000 0.00000
											CHANNELS 3 Zrotation Xrotation Yrotation
											JOINT RightHandPinky3
											{
												OFFSET -2.46976 0.00000 0.00000
												CHANNELS 3 Zrotation Xrotation Yrotation
												End site
												{
													OFFSET 0.00000 0.00000 0.00000
												}
											}
										}
									}
								}
							}
						}
					}
					JOINT LeftShoulder
					{
						OFFSET 0.01000 7.91373 5.19711
						CHANNELS 3 Zrotation Xrotation Yrotation
						JOINT LeftArm
						{
							OFFSET 18.41580 0.00000 0.00000
							CHANNELS 3 Zrotation Xrotation Yrotation
							JOINT LeftForeArm
							{
								OFFSET 29.11090 0.00000 0.00000
								CHANNELS 3 Zrotation Xrotation Yrotation
								JOINT LeftHand
								{
									OFFSET 24.65040 0.00000 0.00000
									CHANNELS 3 Zrotation Xrotation Yrotation
									JOINT LeftHandThumb1
									{
										OFFSET 5.35114 -0.85590 3.97906
										CHANNELS 3 Zrotation Xrotation Yrotation
										JOINT LeftHandThumb2
										{
											OFFSET 4.52789 0.00000 0.00000
											CHANNELS 3 Zrotation Xrotation Yrotation
											JOINT LeftHandThumb3
											{
												OFFSET 2.46977 0.00000 0.00000
												CHANNELS 3 Zrotation Xrotation Yrotation
												End site
												{
													OFFSET 0.00000 0.00000 0.00000
												}
											}
										}
									}
									JOINT LeftHandIndex1
									{
										OFFSET 14.26970 0.00000 2.88139
										CHANNELS 3 Zrotation Xrotation Yrotation
										JOINT LeftHandIndex2
										{
											OFFSET 5.48836 0.00000 0.00000
											CHANNELS 3 Zrotation Xrotation Yrotation
											JOINT LeftHandIndex3
											{
												OFFSET 3.01859 0.00000 0.00000
												CHANNELS 3 Zrotation Xrotation Yrotation
												End site
												{
													OFFSET 0.00000 0.00000 0.00000
												}
											}
										}
									}
									JOINT LeftHandMiddle1
									{
										OFFSET 14.26970 0.00000 -0.09147
										CHANNELS 3 Zrotation Xrotation Yrotation
										JOINT LeftHandMiddle2
										{
											OFFSET 6.17440 0.00000 0.00000
											CHANNELS 3 Zrotation Xrotation Yrotation
											JOINT LeftHandMiddle3
											{
												OFFSET 3.56744 0.00000 0.00000
												CHANNELS 3 Zrotation Xrotation Yrotation
												End site
												{
													OFFSET 0.00000 0.00000 0.00000
												}
											}
										}
									}
									JOINT LeftHandRing1
									{
										OFFSET 12.69180 0.00000 -3.06433
										CHANNELS 3 Zrotation Xrotation Yrotation
										JOINT LeftHandRing2
										{
											OFFSET 5.62556 0.00000 0.00000
											CHANNELS 3 Zrotation Xrotation Yrotation
											JOINT LeftHandRing3
											{
												OFFSET 3.56744 0.00000 0.00000
												CHANNELS 3 Zrotation Xrotation Yrotation
												End site
												{
													OFFSET 0.00000 0.00000 0.00000
												}
											}
										}
									}
									JOINT LeftHandPinky1
									{
										OFFSET 11.11390 0.00000 -6.03719
										CHANNELS 3 Zrotation Xrotation Yrotation
										JOINT LeftHandPinky2
										{
											OFFSET 4.52789 0.00000 0.00000
											CHANNELS 3 Zrotation Xrotation Yrotation
											JOINT LeftHandPinky3
											{
												OFFSET 2.46976 0.00000 0.00000
												CHANNELS 3 Zrotation Xrotation Yrotation
												End site
												{
													OFFSET 0.00000 0.00000 0.00000
												}
											}
										}
									}
								}
							}
						}
					}
					JOINT pCube4
					{
						OFFSET 0.00000 10.91090 1.10792
						CHANNELS 3 Zrotation Xrotation Yrotation
						End site
						{
							OFFSET 0.00000 0.00000 0.00000
						}
					}
				}
			}
		}
	}
	JOINT RightUpLeg
	{
		OFFSET -9.98441 0.00000 0.00000
		CHANNELS 3 Zrotation Xrotation Yrotation
		JOINT RightLeg
		{
			OFFSET 0.00000 -42.11790 0.00000
			CHANNELS 3 Zrotation Xrotation Yrotation
			JOINT RightFoot
			{
				OFFSET 0.00000 -45.00020 -0.00001
				CHANNELS 3 Zrotation Xrotation Yrotation
				JOINT RightForeFoot
				{
					OFFSET 0.00000 -3.74820 0.00000
					CHANNELS 3 Zrotation Xrotation Yrotation
					JOINT RightToeBase
					{
						OFFSET 0.00000 0.06325 14.43120
						CHANNELS 3 Zrotation Xrotation Yrotation
						End site
						{
							OFFSET 0.00000 0.00000 0.00000
						}
					}
				}
			}
		}
	}
	JOINT LeftUpLeg
	{
		OFFSET 9.98441 0.00000 0.00000
		CHANNELS 3 Zrotation Xrotation Yrotation
		JOINT LeftLeg
		{
			OFFSET 0.00000 -42.11800 0.00000
			CHANNELS 3 Zrotation Xrotation Yrotation
			JOINT LeftFoot
			{
				OFFSET 0.00000 -45.00070 0.00000
				CHANNELS 3 Zrotation Xrotation Yrotation
				JOINT LeftForeFoot
				{
					OFFSET 0.00000 -3.74824 0.00000
					CHANNELS 3 Zrotation Xrotation Yrotation
					JOINT LeftToeBase
					{
						OFFSET 0.00000 0.06325 14.43110
						CHANNELS 3 Zrotation Xrotation Yrotation
						End site
						{
							OFFSET 0.00000 0.00000 0.00000
						}
					}
				}
			}
		}
	}
}
MOTION
Frames: 4
Frame Time: 0.050000
-0.037868293776826434 -0.001211468518229496 0.0009351210476102076 -0.02519132396077676 0.00523744840233597 -0.0047978622907917275 -4.686445512465132 0.8249585494850252 -0.45132263885650004 -0.9149618421350763 3.3721423747462977 0.3831413967175287 -1.181224532869865 -1.8072667371560864 -1.236298967307266 -0.6380260483801128 0.2935985083929824 -0.9142492859925392 -0.8128594523262714 12.257572037830066 1.1288476083009589 -0.035475511362398626 1.0296799361868427 0.19469409353702077 -0.4714579750061514 -12.429406896432164 0.10675689930820456 -0.6768263012825158 1.0789985624214393 -12.591763068582514 68.30562640518058 14.685446759871287 5.772239855886582 29.099961968508016 6.908923700226014 84.41785285673095 23.985711713530247 -0.2543475251646055 -5.752498151870703 4.531372227838886 -0.14506310676836362 -1.613306227506058 -0.021930830211378795 -0.009108691044521125 -56.27782263718325 0.03663486118540421 0.048048115014579895 -56.237721380998046 -38.73614120297599 -0.025978792944706786 0.02680161083219402 -0.0005851752336998186 0.03272597845493872 -0.019044098894028312 0.04713083508949041 -0.0058418145571011515 0.009388706924871738 -36.674053702409495 0.03513297292998144 -0.014712391639183305 0.03198460416722063 -0.024817997406680028 0.0065458226430430005 0.009006582638015908 0.022680213796309308 -0.01547162162554491 -19.712497492046353 0.022404898110469737 -0.013965603073105001 0.020393670503955665 -0.008411621081213289 0.02159756588437935 0.0441938195293824 -0.02536557167169572 0.009707634718841014 24.067300680541184 0.021561257215049257 -0.03154438844970076 28.890786281343377 0.039965358300078975 0.005896387815415274 28.903789554992752 0.01998230216292393 -0.005431873201633767 4.295543193274208 1.4184240233166405 12.812982180875288 -60.180931003053814 24.814821439141774 -21.63597659977976 2.4253433294571747 13.799430577088474 -67.08352773162346 -11.860696130992316 8.589820933240647 -6.038087654061123 -0.47966392538952 0.04080369935448323 -8.143393007833454 0.03717319489669111 -0.0157199291811196 44.54826584073767 -0.011049230378956016 -0.0007516925016369391 44.59480011275444 12.46555273295378 0.006237383155307729 -0.018236364894754588 -0.04320027879499914 -0.03819803127036552 0.02312899471226816 -0.04185936478160466 -0.04778161778796556 -0.014133247362931 11.070440231475013 0.03893992995227667 0.018576495291038074 0.008390081854730554 -0.029555183082487453 0.013025453129010626 -0.01033441124608276 -0.036952679898382176 -1.4062581790597495e-05 4.770967742048085 -0.021328935029670475 -0.038284914898055473 -0.021513232000767983 -0.009976118547840099 -0.04010522636665173 -0.02318419779757065 0.001338045029764843 -0.02266656020965619 -5.591090271166519 -0.012260755559504833 0.02735357263092176 -6.695228771337113 -0.024506585989260806 -0.0037771404639111482 -6.749814327178527 0.03678295885795467 -0.02350243370521558 -0.03955942934059422 -0.022220248259263622 0.020942794793946964 8.088888672851086 3.4994906782137476 -19.257611549336676 -0.012037324382761361 10.442638111543708 0.04995671906158142 -5.609726409286439 -15.641748808013709 3.182853385122152 -0.017282787708410543 0.008589424605660903 0.004826196093402627 -0.015479754377769593 4.734657622644775 0.049959881695176456 12.481358693051726 -8.24320770532914 6.91213693178833 0.026612320005313588 46.3584016196262 -0.01924621801977748 -4.363677936651939 -14.741044927111734 -3.838617383832509 0.009845345905415815 -0.008747171297955682 -0.0007100353863942631 -0.04205661964931696 -10.762358327858456 0.01043715916731253 
0.03154592221019077 -0.01448916883475676 -0.0002341808865638891 0.007864994950237009 -0.01274720814260131 0.0381336483306458 -4.704290816383739 0.8616002057483072 -0.5138398062070894 -0.9577397199287215 3.302671068937516 0.3821708667344399 -1.1645006158480724 -1.7651063490516274 -1.3210428893710275 -0.5823092416088684 0.2939564941287639 -0.8860172055375484 -0.7619328878145967 12.184647493808942 0.9578542541024566 -0.02275889529457034 0.9664180885717115 -0.013017184371299902 -0.35742740300607306 -12.453116985947062 0.03577322133580801 -0.6037094494886469 0.9780757164064671 -12.607030843160672 68.2307318399485 14.905090251011954 5.449400095399568 29.367846791273053 7.257033102157199 83.29002193963173 24.233711073627344 -0.25377816536302716 -5.741205550205328 4.555570587603165 -0.12614909923839251 -1.5722770660950913 3.86008635950389e-05 -0.03863158546984314 -56.25270386207163 -0.031411178763377 -0.020770379366437424 -56.21596782999861 -38.738600013482554 -0.02699254338594614 -0.04853325057058646 -0.043600514281706956 -0.021023560652043364 -0.018504205918132635 0.036079085549637936 0.03323464483092773 -0.03137588014919339 -36.66056655611085 0.01603294584513738 -0.03128344703445119 -0.008955820076097616 -0.005036481513813483 0.001950044737224736 0.016947551784200404 -0.004243166256791043 0.015218404648651181 -19.78974882859605 -0.03667169656113548 0.020868805436415765 0.04817794891932979 -0.04243571080649975 0.0394986264098893 -0.04264458022982714 0.031587714627956225 0.03583123963078414 24.012355552050618 0.0020367049066663174 -0.03497100108124435 28.842180235985442 -0.015248532254237269 0.02273200903112559 28.826623530710265 0.040047829310321456 0.022615725715526225 4.148422876371078 1.3786561477508121 12.642359426655652 -60.1565790571612 25.47211498435821 -21.45328758089755 2.2802059772736363 13.44996522407712 -66.10777611236774 -11.848593875682896 8.597686587521503 -5.926685134685898 -0.5154186119757432 0.05982122418531176 -8.102433152233088 -0.019030062905862285 -0.008709984861632464 44.585298932849575 -0.02188377513388058 0.020193966477421863 44.53761327988132 12.428726370648846 -0.008861433353543589 0.00913931336326484 -0.02685069227345382 0.030483607571077903 -0.030082955568535595 0.04598478475899972 0.02176012734870173 0.03220020029671924 11.140763606493131 0.0255193576714128 0.006690617517081349 -0.01267236119294687 -0.008533073551832047 0.04471912873078479 0.029643746283459244 -0.01360506719907845 -0.00459216888022628 4.727737752399809 0.04100656286157301 -0.010025687362122315 -0.04745322336280165 0.013497339812953566 0.00790615683464532 -0.04327732489722627 0.04256227102014058 0.006587175718170149 -5.599994740403825 0.04317457004775846 -0.02713964234573595 -6.695024581336328 -0.028005487297388606 0.007300262041021985 -6.697874533194609 -0.0315112715417476 -0.007818591790489986 -0.047577966907917706 -0.011105417398219807 -0.03420502094997966 8.026443940274904 3.488795202900613 -19.223685252878912 0.023030735026871373 10.383284620108467 -0.01858547692039073 -5.641552124112457 -15.709102202118403 3.195631507310755 -0.0340039640654225 0.03132347051854821 0.03693504070321446 -0.02158927499841934 4.736664575692197 0.007308466444041627 12.42554982057368 -8.210208555491562 6.903816119119282 0.015019539546005304 46.334453547242724 0.04181861117663062 -4.302650420803053 -14.704515933667201 -3.8157683102105273 0.02303190498846288 -0.014302076456579743 -0.020190220098826664 -0.02440294842195998 -10.750255455877168 -0.00037543656676744774 
0.019450792244835147 0.02665532851525065 0.0038938870820143115 -0.019848719697066506 -0.00019726376906873744 0.013425668231756754 -4.594634824298735 0.7798130669819446 -0.468983112480869 -0.9501238524790115 3.3198783610220484 0.356378678256661 -1.1516541945307837 -1.827955870481995 -1.4690819647408917 -0.45041619436161423 0.25336853207070203 -0.8987098611039925 -0.7106356341964386 12.17499302867588 0.8666121983579633 -0.07196953191891003 0.9936122260913823 -0.15561930166395302 -0.3737814901591762 -12.402078297193045 0.09345658530281778 -0.6665918838233991 1.0254809123412216 -12.664128806077677 68.3139112387278 14.898704715654494 5.215025593776719 30.06299394817145 7.505831544589914 82.27949425636064 24.4727282597678 -0.23357204263850806 -5.68403000109079 4.497236642800312 -0.1271402005816356 -1.5836189720968958 0.003668539711654579 0.02733760017688199 -56.192377667528454 0.012962473189932515 -0.01153432756454331 -56.25020602641488 -38.740329935765736 -0.03907533693639977 0.02645165732661214 0.039561254268370975 -0.022056547036294515 -0.007481503352604958 0.009522931596418814 -0.03696005121919 -0.03939164209875422 -36.66668100463905 0.014678230588309835 0.026270527040486727 -0.026392461048478175 -0.002658140196423448 0.016763102584460194 0.03615496959970832 -0.04211237420411704 -0.04121997621313349 -19.77260531564894 0.02900576621188052 0.0035295058368229664 -0.0189670151876371 -0.027487110649285936 -0.002313101621442715 -0.0493245749566199 -0.01104001128286586 -0.0021887462174659074 24.08533333008294 -0.005670965975932129 -0.04370582948619528 28.826059993908753 0.020986574066209726 0.009797694832909872 28.901917746779503 0.0326927069525908 -0.03127311712061487 4.100665590310239 1.3723592127412427 12.561588164025936 -60.23378771004891 25.814244400454378 -21.32793029595446 1.696294944465332 13.009747163209422 -65.40711731775842 -11.82930572653159 8.58113629958492 -5.995133446750739 -0.46958147346758017 0.08859636519280246 -8.152463720940984 -0.0011177246326542604 -0.04494170997120204 44.604055879008186 0.00623132122658388 0.04273179547003876 44.55631966990933 12.443541014081868 0.03971899335726515 0.02609114962364481 -0.03782371113528778 0.041448357981519954 -0.04588954043474283 0.019711892410837924 0.004678571324199909 0.003660491427372401 11.13304765019224 0.02845910129964394 0.03807413645758023 -0.03976392852162132 -0.023716284355486856 0.0155408165375386 -0.02291345897262945 0.0008344497225011623 -0.03518250910032666 4.782693245272277 -0.03300521189473575 -0.016181704778977915 -0.0269663062676317 0.032684133118163705 -0.04014147020114062 -0.04883768890438313 -0.02693998757257195 0.04418581415993912 -5.63491988929836 -0.031140799077451722 -0.03766439760459023 -6.7119757194772145 0.006221470037993208 0.03199796189355027 -6.765911828967472 -0.01485228379507308 -0.04397394687046025 0.03918796724280496 0.03012923083064294 0.00146138367290644 8.054241695323855 3.450177432917796 -19.244716531942757 -0.021966633568358335 10.39786439792994 0.012783917626455739 -5.575299368911126 -15.635614671073693 3.1763884195647236 -0.043146355773182696 -0.0484679542430982 0.011896371535065843 -0.04528068302520521 4.70403223195321 -0.0007170120413972276 12.495740317506918 -8.253761796288988 6.917502915693729 0.016156140799471242 46.38629265328198 0.033877750609488375 -4.303006009547347 -14.733138925056874 -3.8390862721407712 -0.009059710079984438 -0.025768651442159136 0.04877003636087634 0.04661232732890149 -10.767248373003525 -0.006574584727762769 
0.020101400319891837 0.03649225908728812 -0.043714642508747244 0.03251221417199481 0.014535476391164998 -0.0287160304182337 -4.48890042127103 0.621217504643162 -0.4924060643862803 -0.898326434030139 3.352130288831978 0.3741961127822715 -1.2370494747194736 -1.8250279140257308 -1.5839004410939637 -0.41732979433407724 0.2761025687946533 -0.9516830176478062 -0.6826164854291876 12.264790411782217 0.7284142225583026 -0.03780453475541115 1.0118874379441825 -0.18096927679976346 -0.2895229541834351 -12.392470840792221 0.09901488593618635 -0.8071176184367772 0.9940696247456897 -12.70699304789751 68.50869343363526 14.835376996055206 5.124758084624918 30.87831835236461 7.6709153203886125 81.44968413217242 24.50056441025987 -0.25845955793902803 -5.544942397742851 4.508203021312051 -0.16212808131173773 -1.5509445008108713 -0.002692644739463078 -0.0032002541194479255 -56.20699570409965 0.021550606212408494 0.0038305569763800898 -56.224904339272385 -38.814999014517745 0.03321456660723377 0.002242070073455285 -0.012443152468126426 -0.0012765342684681283 0.02603332942480542 0.020100547516483047 -0.021007373779151864 0.04328951896178893 -36.720262705387334 0.0019258302345339195 0.01138165733051399 -0.027853857340119297 -0.020313488579579993 0.018316720394217147 -0.03806558833665733 -0.02868825231556164 -0.041263824548388756 -19.742920569382594 -0.03297722736494393 0.037156409109472925 -0.008619140898142447 0.010721884233032648 -0.03148686510575195 0.03483121620328147 -0.026449217571247064 -0.039262828050996734 24.08625087669477 0.02616134760828455 -0.02625060768032178 28.886443881819666 0.0040523443465380945 -0.03995087384116454 28.8913298545373 0.046232876067331063 -0.015242704785871765 4.211990106937861 1.3555754853663713 12.504724620297562 -60.36519788653171 26.055835825974924 -21.354566045187852 0.8129704688388294 12.568157241827885 -64.79797892694782 -11.769294696037639 8.694832543221546 -6.019361228710359 -0.474910713623869 0.031001429935040563 -8.135342097454163 -0.03487933407467567 0.02955577071155185 44.57326556034487 -0.011217412327993411 0.04398137985586695 44.518011142621326 12.443170014420698 -0.04767560169700877 0.027785454069212772 0.03717448828408507 0.0490967420718987 0.01719630552865238 -0.0040149550523915735 -0.023247330827425472 0.019080028797197994 11.120564181514139 -0.04529494380851421 0.01885941235788898 0.02702868572309627 0.045027286383199715 -0.003218927397527262 -0.03221021358717096 0.007531078268080297 0.004957502776743524 4.782768812095165 -0.03418361879226693 0.0008715840571914767 -0.039782601938176475 0.021263045654385575 0.0374487900646221 0.047787404069680746 0.0031373249957778876 0.031219182693343565 -5.647514008473734 0.004103511964251879 0.03698918628615125 -6.745155722354646 0.00737485784063033 0.04244616443810398 -6.735958476625877 0.031944485999598635 0.014814042763436602 0.005928153447398197 0.03514186750083266 0.02442980138052397 8.03988964013326 3.5053030196718136 -19.231314115746486 -0.020683110891000035 10.38870223605235 -0.01949968197432728 -5.588012750039191 -15.685308530745976 3.1729513731076966 0.034702754644230345 -0.0020372494263603286 0.020295463877535492 0.03968087684930021 4.68400319764632 0.022118560429052785 12.415992794752876 -8.249802835389614 6.907782529573337 0.02790477577119942 46.39818943970318 -0.021473273146707977 -4.310490436611022 -14.704701596421293 -3.8462312352448254 -0.024767041278148407 -0.023637155025871204 -0.006217786748682458 0.03681636105983711 -10.73516736151511 -0.03174450424498333 
